<svg xmlns="http://www.w3.org/2000/svg" viewBox="0 0 328 55.99"><defs><style>.cls-1{fill:#fff;}.cls-2{fill:#7fc45b;}.cls-3{fill:#5b8c3e;}</style></defs><g id="Layer_2" data-name="Layer 2"><g id="OBJECTS"><path class="cls-1" d="M81.33,15H99.24V20.4H81.33a1.58,1.58,0,0,0-1.79,1.79V24a1.58,1.58,0,0,0,1.79,1.79h3.59v5.37H81.33q-9,0-9-7.16v-1.8Q72.38,15,81.33,15Zm9,25.07H72.38V34.73H90.29a1.58,1.58,0,0,0,1.79-1.79,1.58,1.58,0,0,0-1.79-1.79H86.71V25.78h3.58q9,0,8.95,7.16T90.29,40.1Z"/><path class="cls-1" d="M111.1,15H129V20.4H111.1a1.58,1.58,0,0,0-1.79,1.79V24a1.58,1.58,0,0,0,1.79,1.79h3.58v5.37H111.1q-9,0-8.95-7.16v-1.8Q102.15,15,111.1,15Zm9,25.07H102.15V34.73h17.91a1.58,1.58,0,0,0,1.79-1.79,1.58,1.58,0,0,0-1.79-1.79h-3.59V25.78h3.59q9,0,8.95,7.16T120.06,40.1Z"/><path class="cls-2" d="M157.67,20.4H132.59L129,15h28.66Zm-16.12,1.79h7.16V40.1h-7.16Z"/><path class="cls-2" d="M179.16,20.4H161.25L157.67,15h21.49q9,0,9,7.16V24q0,5.75-5.77,6.87l5.77,9.24h-9l-8.95-14.32h8.95A1.58,1.58,0,0,0,181,24v-1.8A1.58,1.58,0,0,0,179.16,20.4ZM168.42,40.1h-7.17V22.19h7.17Z"/><path class="cls-2" d="M202.82,28.79,197.07,40.1h-7.7l9.71-18.73Zm-2.65-9.53,3.71-7.15,14.51,28h-7.71Z"/><path class="cls-2" d="M225.91,32.94a1.58,1.58,0,0,0,1.79,1.79V40.1q-9,0-9-7.16V22.19q0-7.15,9-7.16h7.16V20.4H227.7a1.58,1.58,0,0,0-1.79,1.79Zm10.75,7.16h-7.17V34.73h7.17a1.58,1.58,0,0,0,1.79-1.79V29.36h7.16v3.58Q245.61,40.11,236.66,40.1Zm1.79-17.91a1.58,1.58,0,0,0-1.79-1.79V15q9,0,9,7.16v3.59h-7.16Z"/><path class="cls-2" d="M249.19,15h7.17v14.6l.44-.58L261.46,35l-4,5.12h-8.24Zm18.09,12.54,9.85,12.53h-9.31L258,27.57,267.82,15h9.31Z"/><path class="cls-1" d="M279.64,34.73h7.17V40.1h-7.17Z"/><path class="cls-1" d="M290.39,15h7.16V40.1h-7.16Z"/><path class="cls-1" d="M308.3,32.94a1.58,1.58,0,0,0,1.79,1.79V40.1q-9,0-9-7.16V22.19q0-7.15,9-7.16h7.16V20.4h-7.16a1.58,1.58,0,0,0-1.79,1.79Zm12.54-10.75A1.59,1.59,0,0,0,319,20.4V15q9,0,9,7.16V32.94q0,7.17-9,7.16h-7.16V34.73H319a1.59,1.59,0,0,0,1.8-1.79Z"/><path class="cls-2" d="M38.83,56H17.16a1.16,1.16,0,0,0-.27-.11,2.81,2.81,0,0,1-1.94-3,2.76,2.76,0,0,1,2.58-2.47,4.88,4.88,0,0,0,1.24-.27c2.15-1.08,3.07-3,3.55-5.33H5A4.68,4.68,0,0,1,0,40.13V4.68a4.41,4.41,0,0,1,.48-2A4.5,4.5,0,0,1,4.89,0H51.64a4.16,4.16,0,0,1,3.22,1.67A15.89,15.89,0,0,1,56,3.93V40.82a4.92,4.92,0,0,1-5.05,4H33.51a29.52,29.52,0,0,0,1.18,2.85,4.62,4.62,0,0,0,3.82,2.74A2.77,2.77,0,0,1,41,54,3.18,3.18,0,0,1,38.83,56Zm15.28-20.6V5a2.87,2.87,0,0,0-3.17-3.12H5A2.86,2.86,0,0,0,1.83,5V35.39Zm-52.17,2v3.39a1.5,1.5,0,0,0,.21.65A2.92,2.92,0,0,0,5,42.92H51.58a2.57,2.57,0,0,0,2.42-2c.16-1.13.16-2.31.22-3.5Zm32.32,13c0-.1,0-.1,0-.1a9.85,9.85,0,0,1-2.42-5.17c0-.1-.27-.27-.43-.27H24.58c-.27,0-.43.06-.48.38A9.41,9.41,0,0,1,21.89,50a2.37,2.37,0,0,0-.27.37ZM28,52.28H18.13a2.85,2.85,0,0,0-.65,0,.9.9,0,0,0,0,1.73,3.3,3.3,0,0,0,.7,0H37.81a1.94,1.94,0,0,0,.81-.11,1,1,0,0,0,.54-.8,1.4,1.4,0,0,0-.49-.81c-.16-.16-.48-.11-.75-.11Z"/><path class="cls-2" d="M28,41a1,1,0,0,1-1-.91,1,1,0,0,1,1-1,.94.94,0,0,1,.92.91A1,1,0,0,1,28,41Z"/><path class="cls-2" d="M33.05,19.47a2.24,2.24,0,0,1-.66.52l-8.18,4.69a3.93,3.93,0,0,1-1.27.57h-.31l0,0a1.05,1.05,0,0,1-.79-.58,2.12,2.12,0,0,1-.2-1V13.8a2.5,2.5,0,0,1,.1-.72,1.08,1.08,0,0,1,1.18-.86,2,2,0,0,1,.89.3l8.64,5a2.61,2.61,0,0,1,.56.43A1.09,1.09,0,0,1,33.05,19.47Z"/><path class="cls-1" d="M46.2,15.78l0,0a.16.16,0,0,1,0,.1c-.41.82-.93,1.59-1.4,2.37s-1,1.63-1.49,2.45c-.19.34-.27.29-.43,0l-.56-1-2.5,1.43-.23.14-5.7,3.27-1.31.75h0L22.34,31.16a8,8,0,0,1-2.67,1.19H19a.18.18,0,0,0-.1,0,2.22,2.22,0,0,1-1.66-1.23A4.37,4.37,0,0,1,16.84,29q0-10.41,0-20.8a6.3,6.3,0,0,1,.2-1.5,2.32,2.32,0,0,1,2.5-1.83,4.54,4.54,0,0,1,1.88.65c5.87,3.37,12.47,7.24,18.33,10.61L36.55,18c-.21-.19-9.27-5.51-13.2-7.76a2.82,2.82,0,0,0-1.22-.42A1.48,1.48,0,0,0,20.52,11a3.54,3.54,0,0,0-.13,1q0,6.74,0,13.47a2.74,2.74,0,0,0,.28,1.35,1.41,1.41,0,0,0,1.07.79l.07,0h.42A5.08,5.08,0,0,0,24,26.82l7.15-4.1,1.49-.85,2.66-1.53,5.61-3.22L40.23,16c-.09-.17-.16-.29.14-.29,1.4,0,2.79,0,4.19-.05a12.64,12.64,0,0,1,1.51,0A.2.2,0,0,1,46.2,15.78Z"/><path class="cls-2" d="M33.34,18.73a1.18,1.18,0,0,1-.29.74,2.24,2.24,0,0,1-.66.52l-8.18,4.69a3.93,3.93,0,0,1-1.27.57h-.31l0,0a1.05,1.05,0,0,1-.79-.58,2.12,2.12,0,0,1-.2-1V13.8a2.5,2.5,0,0,1,.1-.72,1.08,1.08,0,0,1,1.18-.86,2,2,0,0,1,.89.3l8.64,5a2.61,2.61,0,0,1,.56.43A1.06,1.06,0,0,1,33.34,18.73Z"/><path class="cls-3" d="M33.34,18.73a1.18,1.18,0,0,1-.29.74,2.24,2.24,0,0,1-.66.52l-8.18,4.69a3.93,3.93,0,0,1-1.27.57h-.31l0,0a1.05,1.05,0,0,1-.79-.58,2.12,2.12,0,0,1-.2-1V18.73Z"/></g></g></svg>